<svg width="16" height="17" viewBox="0 0 16 17" fill="none" xmlns="http://www.w3.org/2000/svg">
<path d="M9.34417 11.4462C9.39084 11.1326 9.64777 10.3653 9.79781 9.86148C9.74512 9.86249 9.69143 9.85797 9.63974 9.84342C9.52834 9.81381 9.43149 9.75259 9.35872 9.66879C9.24631 9.68635 9.13341 9.67029 9.03154 9.62262C8.92716 9.57444 8.84335 9.49716 8.78615 9.40182C8.67324 9.39981 8.56585 9.36519 8.47251 9.29945C8.43337 9.27235 8.40075 9.23873 8.37114 9.2041C8.40828 9.79223 8.43337 10.3217 8.4414 10.4827C8.46197 10.8827 8.22311 11.8141 8.3054 12.201C8.3882 12.5884 8.99691 13.6618 9.01749 13.8429C9.03806 14.0236 8.84787 14.1029 8.75102 14.2037C8.65367 14.3051 8.68478 14.4592 8.76256 14.5495C8.84085 14.6403 9.05512 14.7226 9.13341 14.8952C9.21169 15.0679 9.09226 15.7368 9.08322 15.9094C9.07469 16.0815 9.30202 16.0329 9.3803 15.9094C9.45808 15.786 9.80484 15.2089 9.82541 14.8581C9.84599 14.5083 9.68741 14.0386 9.65229 13.8319C9.61716 13.6251 9.29499 11.7799 9.34417 11.4462Z" fill="#3581E5"/>
<path d="M7.0125 5.35121C6.75557 5.27794 6.50014 5.20467 6.27834 5.14145C5.45836 4.9081 2.40228 4.30642 2.12478 4.25122C1.84727 4.19602 1.67465 4.0816 1.56826 4.02189C1.46188 3.96217 0.723699 3.12564 0.393502 3.10105C0.0643089 3.07646 -0.0837277 3.37303 0.0477489 3.53362C0.179226 3.6942 0.871234 4.36162 1.16028 4.46098C1.44883 4.55984 1.64805 4.62256 1.95165 4.72042C2.16894 4.79118 5.17082 5.91124 6.91515 6.62583C6.91264 6.61228 6.90661 6.59973 6.90511 6.58618C6.89457 6.47076 6.91966 6.35886 6.97386 6.26201C6.92067 6.16616 6.89557 6.05425 6.90511 5.93984C6.91565 5.82442 6.95931 5.71854 7.02956 5.63222C6.99845 5.5424 6.99594 5.44605 7.0125 5.35121Z" fill="#3581E5"/>
<path d="M15.081 0.0104164C14.9209 -0.063351 13.9002 0.270359 13.6839 0.517254C13.4676 0.764651 12.1664 3.49505 11.9657 3.87994C11.9782 3.78711 11.7122 3.49103 11.794 3.33748C11.8758 3.18442 12.2748 2.93452 12.2994 2.83566C12.324 2.7373 12.0274 2.50195 12.0645 2.4337C12.1017 2.36596 12.1694 2.30423 12.1262 2.24853C12.0831 2.19333 11.7805 2.19885 11.6937 2.13713C11.6074 2.0754 11.4137 1.91633 11.2862 1.81596C11.1587 1.7156 10.5199 1.80342 10.272 2.01368C10.0241 2.22394 9.94283 2.5441 9.91372 2.63192C9.88512 2.71974 9.77171 2.72476 9.75314 2.82964C9.73508 2.93452 10.0191 3.27475 10.1119 3.31188C10.2048 3.34902 10.6258 3.60043 10.7242 3.65764C10.8225 3.71485 10.7181 3.78761 10.6439 3.74395C10.5696 3.70079 6.90331 1.34726 6.6509 1.18467C6.39798 1.02309 5.025 1.09184 4.84535 1.18467C4.6667 1.27801 5.42646 1.74069 5.61163 1.69201C5.7973 1.64183 6.22385 1.43859 6.35382 1.51838C6.48379 1.59867 9.81537 4.29395 9.93932 4.48564C10.0633 4.67734 10.1541 5.43408 10.0512 5.59817C10.0256 5.63882 9.98197 5.6609 9.92928 5.67294C9.25785 5.08682 8.31141 4.26434 8.21757 4.1991C8.07305 4.09673 7.87132 4.13236 7.76895 4.27688C7.69568 4.38126 7.69568 4.51274 7.75339 4.61661C7.63546 4.61912 7.52105 4.68486 7.46836 4.79878C7.41466 4.91369 7.43725 5.04316 7.51202 5.136C7.39509 5.15858 7.29423 5.24389 7.26211 5.36583C7.22949 5.48878 7.27365 5.61122 7.36298 5.69001C7.25207 5.73316 7.16777 5.83403 7.15673 5.95998C7.14619 6.08594 7.21093 6.19985 7.3133 6.26158C7.21143 6.3233 7.14619 6.43772 7.15673 6.56317C7.16777 6.68963 7.25207 6.78949 7.36298 6.83315C7.27315 6.91143 7.22849 7.03438 7.26161 7.15682C7.29373 7.28027 7.39459 7.36408 7.51202 7.38716C7.43725 7.48 7.41466 7.60946 7.46836 7.72288C7.52155 7.83829 7.63546 7.90403 7.75339 7.90704C7.69619 8.01142 7.69769 8.1424 7.76895 8.24577C7.84221 8.34915 7.96416 8.39431 8.08158 8.37624C8.04395 8.48915 8.06703 8.61712 8.15635 8.70644C8.24568 8.79627 8.37464 8.81885 8.48655 8.78071C8.46899 8.89713 8.51415 9.02108 8.61803 9.09385C8.7224 9.16661 8.85238 9.16661 8.95675 9.1099C8.95976 9.22783 9.02601 9.34225 9.13992 9.39494C9.25484 9.44863 9.3838 9.42605 9.47664 9.35178C9.49972 9.4682 9.58353 9.56857 9.70697 9.60118C9.82892 9.63431 9.95186 9.58964 10.0301 9.49982C10.0733 9.61122 10.1742 9.69503 10.3011 9.70556C10.4271 9.7161 10.5405 9.65137 10.6022 9.5495C10.6639 9.65137 10.7774 9.7161 10.9043 9.70556C11.0303 9.69452 11.1301 9.61072 11.1728 9.49982C11.2521 9.58964 11.3745 9.63431 11.4975 9.60118C11.6199 9.56806 11.7032 9.4677 11.7268 9.35178C11.8196 9.42555 11.9486 9.44813 12.0645 9.39494C12.1784 9.34174 12.2442 9.22783 12.2467 9.1089C12.3511 9.16611 12.4815 9.16611 12.5859 9.09334C12.7309 8.99148 12.7666 8.79025 12.6652 8.64422C12.597 8.54837 11.7143 7.53469 11.1266 6.86075C11.7915 6.3233 12.4881 5.77983 12.5493 5.62276C12.6687 5.31766 12.4926 4.85648 12.4755 4.62163C12.4579 4.38678 13.9905 0.922724 14.0703 0.727516C14.1506 0.531305 14.688 0.758629 14.9359 0.640701C15.1798 0.523276 15.2415 0.0846857 15.081 0.0104164Z" fill="#3581E5"/>
</svg>
