<svg width="15" height="18" viewBox="0 0 15 18" fill="none" xmlns="http://www.w3.org/2000/svg">
<path d="M1 16.52V1.48C1 1.2149 1.2149 1 1.48 1H10.8012C10.9285 1 11.0506 1.05057 11.1406 1.14059L13.6594 3.65941C13.7494 3.74943 13.8 3.87152 13.8 3.99882V16.52C13.8 16.7851 13.5851 17 13.32 17H1.48C1.2149 17 1 16.7851 1 16.52Z" stroke="#A4A4A4" stroke-width="0.8" stroke-linecap="round" stroke-linejoin="round"/>
<path d="M1 16.52V1.48C1 1.2149 1.2149 1 1.48 1H10.8012C10.9285 1 11.0506 1.05057 11.1406 1.14059L13.6594 3.65941C13.7494 3.74943 13.8 3.87152 13.8 3.99882V16.52C13.8 16.7851 13.5851 17 13.32 17H1.48C1.2149 17 1 16.7851 1 16.52Z" stroke="black" stroke-opacity="0.2" stroke-width="0.8" stroke-linecap="round" stroke-linejoin="round"/>
<path d="M1 16.52V1.48C1 1.2149 1.2149 1 1.48 1H10.8012C10.9285 1 11.0506 1.05057 11.1406 1.14059L13.6594 3.65941C13.7494 3.74943 13.8 3.87152 13.8 3.99882V16.52C13.8 16.7851 13.5851 17 13.32 17H1.48C1.2149 17 1 16.7851 1 16.52Z" stroke="black" stroke-opacity="0.2" stroke-width="0.8" stroke-linecap="round" stroke-linejoin="round"/>
<path d="M10.5996 3.72V1.28284C10.5996 1.12663 10.7262 1 10.8825 1C10.9574 1 11.0294 1.0298 11.0825 1.08284L13.7167 3.71716C13.7698 3.7702 13.7996 3.84214 13.7996 3.91716C13.7996 4.07337 13.673 4.2 13.5167 4.2H11.0796C10.8145 4.2 10.5996 3.9851 10.5996 3.72Z" fill="#696969" stroke="#696969" stroke-width="0.8" stroke-linecap="round" stroke-linejoin="round"/>
<path d="M4.2002 7.39941H10.6002H4.2002Z" fill="#696969"/>
<path d="M4.2002 7.39941H10.6002" stroke="#696969" stroke-width="0.8" stroke-linecap="round" stroke-linejoin="round"/>
<path d="M4.2002 13.8018H10.6002H4.2002Z" fill="#696969"/>
<path d="M4.2002 13.8018H10.6002" stroke="#696969" stroke-width="0.8" stroke-linecap="round" stroke-linejoin="round"/>
<path d="M4.2002 10.6006H7.40019H4.2002Z" fill="#696969"/>
<path d="M4.2002 10.6006H7.40019" stroke="#696969" stroke-width="0.8" stroke-linecap="round" stroke-linejoin="round"/>
</svg>
