<svg width="16" height="16" viewBox="0 0 16 16" fill="none" xmlns="http://www.w3.org/2000/svg">
<path d="M11.9997 8.33317C13.6566 8.33317 14.9997 9.67631 14.9997 11.3332C14.9997 12.5749 14.0532 13.8764 12.1997 15.2665C12.0812 15.3554 11.9183 15.3554 11.7997 15.2665C9.94625 13.8764 8.99972 12.5749 8.99972 11.3332C8.99972 9.67631 10.3429 8.33317 11.9997 8.33317ZM8.34792 11.0004C8.33812 11.11 8.33305 11.221 8.33305 11.3332C8.33305 12.1338 8.63745 12.9072 9.18125 13.6582C8.82078 14.2975 8.40965 14.6658 7.99972 14.6658C7.20172 14.6658 6.39935 13.2699 5.97461 11.1967L5.9359 11.0004H8.34792ZM4.91402 11.0004C5.15721 12.3885 5.5694 13.5695 6.10882 14.396C4.40026 13.8914 2.97782 12.7215 2.14117 11.1864L2.0436 11.0005L4.91402 11.0004ZM11.9997 10.3332C11.4475 10.3332 10.9997 10.7809 10.9997 11.3332C10.9997 11.8854 11.4475 12.3332 11.9997 12.3332C12.552 12.3332 12.9997 11.8854 12.9997 11.3332C12.9997 10.7809 12.552 10.3332 11.9997 10.3332ZM10.2827 6.66664C10.3079 6.98949 10.3242 7.321 10.3308 7.65946L10.334 8.06584C9.59111 8.44533 8.99476 9.07071 8.65225 9.83466L8.58278 10.0004H5.78237C5.707 9.36991 5.66536 8.69824 5.66536 8.00017C5.66536 7.77159 5.66983 7.54583 5.67849 7.3234L5.69457 6.99231L5.71673 6.66664H10.2827ZM4.71209 6.66704C4.68126 7.10037 4.66536 7.54584 4.66536 8.00017C4.66536 8.55311 4.68891 9.09291 4.73426 9.61364L4.77234 10.0004H1.63726C1.43894 9.36897 1.33203 8.69704 1.33203 8.00017C1.33203 7.54351 1.37794 7.09751 1.46541 6.66664L4.71209 6.66704ZM14.5341 6.66664C14.6215 7.09751 14.6674 7.54351 14.6674 8.00017C14.6674 8.26111 14.6525 8.51851 14.6233 8.77164C13.9575 8.08977 13.0281 7.66651 11.9997 7.66651C11.7717 7.66651 11.5486 7.68731 11.3322 7.72711L11.3252 7.41406L11.3132 7.10431L11.2874 6.66704L14.5341 6.66664ZM9.89065 1.6044C11.9029 2.19838 13.5189 3.71612 14.2477 5.66661L11.1871 5.66681C10.9767 4.05553 10.5494 2.67174 9.96258 1.71789L9.89065 1.6044ZM6.10877 1.60443C5.5216 2.5041 5.08519 3.82384 4.85342 5.37359L4.81237 5.66681L1.75178 5.66661C2.47076 3.74244 4.05316 2.23941 6.02758 1.62894L6.10877 1.60443ZM7.99972 1.33447C8.87892 1.33447 9.76345 3.02897 10.1424 5.45677L10.1736 5.66664H5.82585C6.18546 3.12719 7.09545 1.33447 7.99972 1.33447Z" fill="black"/>
</svg>
