<svg width="18" height="17" viewBox="0 0 18 17" fill="none" xmlns="http://www.w3.org/2000/svg">
<path d="M17.5988 8.09428C17.853 7.46901 17.998 6.84778 17.9995 6.23661C18.0103 2.58143 15.4943 1.0166 14.0218 1.0166C9.83744 1.17111 9.83425 5.21302 9.83425 5.21302C9.83425 5.21302 9.71481 1.17228 5.64677 1.0166C4.17423 1.0166 1.66895 2.58143 1.66895 6.23661C1.66895 9.995 9.83435 16.8825 9.83435 16.8825C10.2714 16.4549 10.7534 16.0044 11.2572 15.5356L11.4307 15.3318C12.3464 16.2444 13.0995 16.8825 13.0995 16.8825C14.9106 15.1034 17.9933 12.6678 17.9997 10.4637C18.0024 9.55085 17.7445 8.85484 17.3791 8.35188L17.5988 8.09428Z" fill="white"/>
<path d="M12.8265 0H12.8044C10.2676 0.0724906 9.17006 1.61252 8.81591 2.27148L8.61882 2.6383L8.41827 2.27339C8.05619 1.61459 6.94685 0.0743004 4.47222 0.000425961L4.44795 5.31944e-05C2.66129 0.00239503 0.00851578 1.81296 0 5.69094C0.0598233 7.89759 2.05949 10.3882 4.21169 12.7509C6.27847 14.969 8.31326 16.684 8.33354 16.701C8.4196 16.7736 8.52807 16.8133 8.63947 16.8133C8.76375 16.8133 8.88132 16.7653 8.97052 16.678C9.33053 16.3261 9.72236 15.9578 10.0923 15.6122L10.2485 15.4663L10.4031 15.6139C10.9793 16.1645 11.4252 16.5529 11.5902 16.6943L11.598 16.7011L11.5981 16.7011C11.6833 16.7734 11.792 16.8132 11.9042 16.8132C12.0294 16.8132 12.1472 16.7651 12.236 16.6777C12.5935 16.3097 13.0159 15.9189 13.4631 15.5052C15.1211 13.9715 17.1843 12.063 17.2784 9.91806V9.90705C17.2764 9.18315 17.1263 8.52861 16.8319 7.9621L16.7793 7.86086L16.8336 7.75C16.8369 7.74351 16.8402 7.73706 16.843 7.73025C17.1301 7.02334 17.2765 6.33872 17.2784 5.69551V5.67108C17.2717 1.80646 14.618 0.00234184 12.8265 0ZM12.0583 15.5482L11.8933 15.7019L11.7393 15.5627C11.2565 15.1268 10.5285 14.4425 9.80177 13.6581C8.62835 12.4404 7.41714 10.7158 7.47781 9.91184C7.48356 7.95922 8.78009 7.26486 9.37177 7.24794L9.38199 7.24767L9.39221 7.24831C10.4935 7.31671 10.8711 7.81898 11.1387 8.28436L11.1432 8.29256C11.2926 8.57912 11.3621 8.86716 11.3902 9.01337C11.3963 9.04386 11.4013 9.07207 11.4055 9.09783H11.4243L11.4309 9.31738C11.4386 9.57568 11.6467 9.77787 11.9046 9.77787L11.9112 9.77782C12.1661 9.77388 12.3743 9.56524 12.378 9.31126C12.3774 9.29833 12.3777 9.28678 12.378 9.27704L12.3838 9.05674H12.3985C12.4262 8.86503 12.4912 8.57805 12.643 8.28569L12.6467 8.27867C12.9076 7.81653 13.281 7.31766 14.416 7.24821L14.4259 7.24762L14.4359 7.24789C15.0289 7.26364 16.3292 7.95502 16.3309 9.90678V9.91189C16.4276 11.4761 14.0053 13.7337 12.0583 15.5482ZM16.3309 5.69152C16.3302 6.00378 16.285 6.33563 16.1966 6.67834L16.1139 6.99907L15.8451 6.80539C15.3955 6.48125 14.8895 6.30168 14.4202 6.29955L14.3975 6.30013C13.0913 6.32994 12.378 7.01253 12.0689 7.41682L11.8897 7.65132L11.7097 7.41735C11.3996 7.01397 10.6886 6.33239 9.41244 6.30013L9.38913 6.29955C8.23934 6.30503 6.53858 7.45716 6.53038 9.91716C6.59308 11.4902 8.04752 13.1169 9.10976 14.3049C9.21083 14.4138 9.31552 14.5247 9.41803 14.6316L9.57679 14.7971L9.40914 14.9537C9.17958 15.1679 8.97089 15.3647 8.77104 15.555L8.62074 15.6981L8.46516 15.5607C7.74617 14.9257 6.32733 13.6321 4.90307 12.1032C3.0379 10.1466 0.882607 7.29233 0.947487 5.68875C0.950574 3.80437 1.65898 2.66895 2.25296 2.04794C3.01906 1.24703 3.90778 0.954778 4.43608 0.947859L4.44337 0.947753L4.45067 0.948126C6.41382 1.04877 7.1912 2.01467 7.64909 2.84496C7.90429 3.33281 8.03086 3.81129 8.09255 4.1276C8.12208 4.27897 8.1388 4.40133 8.14864 4.49197L8.16041 4.49367L8.16594 4.68437C8.17344 4.94197 8.38128 5.14374 8.63915 5.14374L8.64612 5.14369C8.90335 5.14012 9.11263 4.92835 9.113 4.67138L9.11257 4.66936L9.11603 4.56478C9.12966 4.31793 9.2021 3.59031 9.58632 2.84337C10.0345 2.01233 10.8059 1.04989 12.8275 0.948019L12.8346 0.947647L12.8417 0.947753C13.3696 0.954406 14.2581 1.24517 15.0247 2.04251C15.6196 2.66123 16.3291 3.79293 16.3309 5.6705V5.69152H16.3309Z" fill="#696969"/>
</svg>
