<svg width="12" height="14" viewBox="0 0 12 14" fill="none" xmlns="http://www.w3.org/2000/svg">
<path d="M6 7C7.89375 7 9.42857 5.4332 9.42857 3.5C9.42857 1.5668 7.89375 0 6 0C4.10625 0 2.57143 1.5668 2.57143 3.5C2.57143 5.4332 4.10625 7 6 7ZM8.56607 7.89141L7.28571 13.125L6.42857 9.40625L7.28571 7.875H4.71429L5.57143 9.40625L4.71429 13.125L3.43393 7.89141C1.52411 7.98438 0 9.57852 0 11.55V12.6875C0 13.4121 0.575893 14 1.28571 14H10.7143C11.4241 14 12 13.4121 12 12.6875V11.55C12 9.57852 10.4759 7.98438 8.56607 7.89141Z" fill="#F138DC"/>
</svg>
