<svg width="11" height="15" viewBox="0 0 11 15" fill="none" xmlns="http://www.w3.org/2000/svg">
<path fill-rule="evenodd" clip-rule="evenodd" d="M5.5 4.21875C4.74054 4.21875 4.125 4.84828 4.125 5.625C4.125 6.40172 4.74054 7.03125 5.5 7.03125C6.25946 7.03125 6.875 6.40172 6.875 5.625C6.875 4.84828 6.25946 4.21875 5.5 4.21875ZM5.5 7.96875C4.23454 7.96875 3.20833 6.91969 3.20833 5.625C3.20833 4.33031 4.23454 3.28125 5.5 3.28125C6.76546 3.28125 7.79167 4.33031 7.79167 5.625C7.79167 6.91969 6.76546 7.96875 5.5 7.96875ZM5.5 0C2.46263 0 0 2.51859 0 5.625C0 7.97719 4.58563 15.0052 5.5 15C6.40017 15.0052 11 7.94531 11 5.625C11 2.51859 8.53738 0 5.5 0Z" fill="#1B1F26" fill-opacity="0.5"/>
</svg>
