<svg width="19" height="18" viewBox="0 0 19 18" fill="none" xmlns="http://www.w3.org/2000/svg">
<path d="M4.87317 12.2445L4.87331 12.2445C6.23054 12.0279 7.61352 12.0279 8.97078 12.2445L8.97092 12.2445L9.13518 12.2707C9.13524 12.2707 9.13529 12.2707 9.13535 12.2707C10.4753 12.4847 11.4612 13.6405 11.4612 14.9975C11.4612 15.2441 11.2612 15.4441 11.0146 15.4441H2.82944C2.58281 15.4441 2.38281 15.2441 2.38281 14.9975C2.38281 13.6405 3.36875 12.4847 4.70876 12.2707C4.70881 12.2707 4.70886 12.2707 4.70891 12.2707L4.87317 12.2445Z" fill="white" stroke="white" stroke-width="2"/>
<path d="M9.15383 4.90406C9.15383 6.13633 8.15488 7.13527 6.92262 7.13527C5.69035 7.13527 4.69141 6.13633 4.69141 4.90406C4.69141 3.6718 5.69035 2.67285 6.92262 2.67285C8.15488 2.67285 9.15383 3.6718 9.15383 4.90406Z" fill="white" stroke="white" stroke-width="2"/>
<path d="M1.38281 14.9975C1.38281 13.149 2.72593 11.5746 4.55128 11.2832L4.71569 11.257C6.17734 11.0237 7.66672 11.0237 9.12839 11.257L9.29281 11.2832C11.1181 11.5746 12.4612 13.149 12.4612 14.9975C12.4612 15.7964 11.8135 16.4441 11.0146 16.4441H2.82944C2.03049 16.4441 1.38281 15.7964 1.38281 14.9975Z" fill="white" stroke="white" stroke-width="2"/>
<path d="M10.1538 4.90406C10.1538 6.68861 8.70717 8.13527 6.92262 8.13527C5.13807 8.13527 3.69141 6.68861 3.69141 4.90406C3.69141 3.11951 5.13807 1.67285 6.92262 1.67285C8.70717 1.67285 10.1538 3.11951 10.1538 4.90406Z" fill="white" stroke="white" stroke-width="2"/>
<path d="M12.4609 8.13527C14.2455 8.13527 15.6921 6.68861 15.6921 4.90406C15.6921 3.11951 14.2455 1.67285 12.4609 1.67285M14.6673 16.4441H16.5535C17.3524 16.4441 18.0002 15.7964 18.0002 14.9974C18.0002 13.149 16.657 11.5746 14.8317 11.2832C14.7222 11.2658 14.6114 11.257 14.5006 11.257C14.2053 11.257 14.1137 11.257 13.6068 11.257" fill="white"/>
<path d="M12.4609 8.13527C14.2455 8.13527 15.6921 6.68861 15.6921 4.90406C15.6921 3.11951 14.2455 1.67285 12.4609 1.67285M14.6673 16.4441H16.5535C17.3524 16.4441 18.0002 15.7964 18.0002 14.9974C18.0002 13.149 16.657 11.5746 14.8317 11.2832C14.7222 11.2658 14.6114 11.257 14.5006 11.257C14.2053 11.257 14.1137 11.257 13.6068 11.257" stroke="white" stroke-width="2" stroke-linecap="round"/>
</svg>
