<svg width="14" height="17" viewBox="0 0 14 17" fill="none" xmlns="http://www.w3.org/2000/svg">
<path d="M7.00059 0C4.10886 0 0 4.09119 0 7.91083V9.08216C0 11.6672 1.70333 13.759 3.76123 13.759H4.79437C4.94463 14.1985 5.25044 14.5236 5.60047 14.6196V16.407C5.60047 16.569 5.70496 16.7 5.83382 16.7C5.9627 16.7 6.06716 16.5689 6.06716 16.407V14.6191C6.35886 14.5467 6.6189 14.3443 6.79079 14.0483C6.93972 14.0677 7.08351 14.0677 7.23221 14.0483C7.40419 14.3443 7.70062 14.5467 7.93399 14.6191V16.407C7.93399 16.569 8.03848 16.7 8.16734 16.7C8.29619 16.7 8.40068 16.5689 8.40068 16.407V14.6196C8.80904 14.5236 9.11491 14.1985 9.26517 13.759H10.2984C12.3562 13.759 14.0012 11.6672 14.0012 9.08247V7.91199C14.0012 4.09204 9.89233 0 7.00059 0ZM8.40071 14.0119V13.7702C8.40071 13.6082 8.29622 13.4772 8.16737 13.4772C8.03851 13.4772 7.93402 13.6083 7.93402 13.7702V14.0131C7.81734 13.9408 7.64645 13.7934 7.56247 13.5939C7.52156 13.4969 7.44888 13.438 7.36364 13.438C7.3495 13.438 7.33881 13.4397 7.32456 13.4429C7.12925 13.4884 6.92498 13.4886 6.72946 13.4429C6.62964 13.4211 6.51468 13.4809 6.46693 13.5942C6.38301 13.7935 6.24223 13.9408 6.06722 14.0131V13.7702C6.06722 13.6082 5.96273 13.4772 5.83387 13.4772C5.70499 13.4772 5.60053 13.6083 5.60053 13.7702V14.0119C5.36718 13.8909 5.14842 13.5661 5.14842 13.1842C5.14842 12.9133 5.25312 12.6615 5.42292 12.4933C5.50301 12.4137 5.5364 12.2781 5.49995 12.1585C5.42874 11.925 5.39456 11.679 5.39456 11.4263C5.39456 10.586 5.78161 9.83956 6.40179 9.52424C6.48999 9.47961 6.53396 9.37204 6.53396 9.25273V6.44566C6.53396 5.79933 6.96728 5.27375 7.48196 5.27375C7.99664 5.27375 8.42267 5.79933 8.42267 6.44566C8.42267 7.00101 8.09783 7.48368 7.66529 7.59386C7.55648 7.6216 7.46736 7.74177 7.46736 7.88113V9.25277C7.46736 9.37208 7.53961 9.47964 7.6278 9.52428C8.24798 9.83957 8.65601 10.5861 8.65601 11.4264C8.65601 11.679 8.62366 11.9253 8.55256 12.1585C8.51611 12.2782 8.54767 12.4137 8.62776 12.4933C8.79753 12.6615 8.88118 12.9133 8.88118 13.1843C8.8811 13.566 8.69241 13.8909 8.40071 14.0119ZM8.90779 10.2385C9.9468 10.1296 10.7634 9.12765 10.7634 7.90774C10.7634 7.74578 10.6589 7.6161 10.5301 7.6161C10.4012 7.6161 10.2967 7.74784 10.2967 7.9098C10.2967 8.87914 9.58961 9.66803 8.72044 9.66803C8.68352 9.66803 8.63449 9.67998 8.60345 9.69914C8.4239 9.4392 8.2257 9.22132 7.93402 9.06324V8.10337C8.22572 7.99879 8.38821 7.81194 8.54543 7.5805C8.57668 7.60004 8.62599 7.60639 8.66323 7.60639H8.89658C8.92461 7.60639 8.95231 7.60567 8.97851 7.59338L10.8453 6.71721C10.9346 6.67515 10.9945 6.57064 10.9966 6.45105C10.9989 6.33147 10.943 6.22287 10.8553 6.17566L9.22188 5.2915C9.19282 5.27577 9.1615 5.26252 9.12992 5.26252H8.53897C8.28244 4.89628 7.89563 4.68214 7.48188 4.68214C6.70982 4.68214 6.06719 5.47625 6.06719 6.4456V9.06328C5.83384 9.22135 5.60649 9.43937 5.42699 9.69924C5.39595 9.68015 5.35425 9.66841 5.31736 9.66841C4.44811 9.66841 3.73367 8.87959 3.73367 7.91024V7.36375C3.73367 5.96149 5.61076 4.10176 7.01519 4.10176C7.56417 4.10176 8.2435 4.39703 8.86641 4.91177C8.97443 5.00162 9.12256 4.96327 9.19331 4.82823C9.26419 4.6932 9.23616 4.5115 9.12847 4.42251C8.43137 3.84628 7.65214 3.51579 7.01429 3.51579C5.47197 3.51579 3.26698 5.50602 3.26698 7.36375V7.91024C3.26698 9.13036 4.09824 10.1296 5.13723 10.2385C5.06239 10.4265 5.01951 10.6094 4.98207 10.8292H4.77569C3.57383 10.8292 2.56692 9.7013 2.56692 8.30106V7.54599C2.56692 5.68139 4.90238 2.92981 7.00062 2.92981C9.09886 2.92981 11.4343 5.68198 11.4343 7.54685V8.30106C11.4343 9.7013 10.4857 10.8292 9.28402 10.8292H9.07755C9.04009 10.6095 8.98261 10.4266 8.90779 10.2385ZM8.81632 5.8485H9.08209L10.1373 6.41645L8.85433 7.02045H8.81506C8.86742 6.87394 8.89658 6.63869 8.89658 6.43447C8.89658 6.22902 8.86814 6.06823 8.81632 5.8485ZM9.07747 12.0011C9.11204 11.8546 9.12995 11.6349 9.12995 11.4151H9.28399C10.7431 11.4151 11.901 10.0243 11.901 8.30106V7.54685C11.901 5.03478 9.02488 2.34387 7.00059 2.34387C4.9763 2.34387 2.10018 5.0342 2.10018 7.54603V8.3011C2.10018 10.0244 3.3165 11.4152 4.77563 11.4152H4.92957C4.92957 11.6349 4.9475 11.8547 4.98215 12.0012H4.21209C2.67762 12.0012 1.40012 10.5228 1.40012 8.69165V7.72858C1.40012 4.90291 4.73839 1.75793 7.00059 1.75793C9.651 1.75793 12.6011 5.31721 12.6011 7.72944V8.69165C12.6011 10.5228 11.3819 12.0012 9.84754 12.0012L9.07747 12.0011ZM13.5345 9.08247C13.5345 11.3442 12.0989 13.1731 10.2984 13.1731H9.36329C9.36329 12.9533 9.32867 12.8068 9.26542 12.5871H9.84754C11.6393 12.5871 13.0678 10.8458 13.0678 8.69165V7.72944C13.0678 4.56328 9.50683 1.17195 7.00056 1.17195C4.4943 1.17195 0.933403 4.56297 0.933403 7.72855V8.69161C0.933403 10.8458 2.42035 12.5871 4.21209 12.5871H4.7942C4.7309 12.8068 4.69622 12.9533 4.69622 13.173H3.7612C1.96069 13.173 0.466688 11.3439 0.466688 9.08216V7.91083C0.466715 4.44424 4.36137 0.585976 7.00059 0.585976C9.63982 0.585976 13.5345 4.4451 13.5345 7.91196V9.08247Z" fill="#8836F1"/>
</svg>
