<svg width="21" height="20" viewBox="0 0 21 20" fill="none" xmlns="http://www.w3.org/2000/svg">
<g filter="url(#filter0_d_1114_3855)">
<path d="M10.0455 4.48825C10.1895 4.17208 10.2615 4.014 10.3618 3.96532C10.4489 3.92302 10.5511 3.92302 10.6382 3.96532C10.7385 4.014 10.8105 4.17208 10.9545 4.48825L12.1014 7.00656C12.1441 7.10003 12.1653 7.14676 12.1983 7.18255C12.2274 7.21421 12.263 7.23954 12.3028 7.25688C12.3478 7.27648 12.3998 7.28185 12.5038 7.29259L15.3054 7.58199C15.6571 7.61832 15.833 7.63648 15.9113 7.71476C15.9793 7.78275 16.0108 7.87796 15.9967 7.9721C15.9804 8.08045 15.849 8.19629 15.5863 8.42804L13.4935 10.2739C13.4158 10.3423 13.377 10.3766 13.3524 10.4183C13.3306 10.4553 13.317 10.4962 13.3125 10.5386C13.3073 10.5865 13.3181 10.6365 13.3398 10.7367L13.9244 13.4338C13.9978 13.7725 14.0345 13.9418 13.9826 14.0388C13.9375 14.1232 13.8548 14.182 13.7589 14.1979C13.6486 14.2161 13.4954 14.1297 13.189 13.9567L10.7486 12.5792C10.6581 12.528 10.6128 12.5025 10.5646 12.4925C10.522 12.4836 10.478 12.4836 10.4354 12.4925C10.3872 12.5025 10.342 12.528 10.2514 12.5792L7.81102 13.9567C7.50464 14.1297 7.35145 14.2161 7.24111 14.1979C7.14525 14.182 7.0625 14.1232 7.01744 14.0388C6.96558 13.9418 7.00227 13.7725 7.07566 13.4338L7.66018 10.7367C7.68187 10.6365 7.69272 10.5865 7.68757 10.5386C7.68301 10.4962 7.66941 10.4553 7.64764 10.4183C7.62304 10.3766 7.5842 10.3423 7.50653 10.2739L5.41377 8.42804C5.15103 8.19629 5.01966 8.08045 5.00333 7.9721C4.98915 7.87796 5.02075 7.78275 5.08876 7.71476C5.16706 7.63648 5.34292 7.61832 5.69466 7.58199L8.49629 7.29259C8.60028 7.28185 8.65226 7.27648 8.69722 7.25688C8.737 7.23954 8.77261 7.21421 8.80176 7.18255C8.83469 7.14676 8.85598 7.10003 8.89855 7.00656L10.0455 4.48825Z" fill="#F138DC" stroke="#8836F1" stroke-linecap="round" stroke-linejoin="round"/>
<path d="M10.3488 7.79868C10.3968 7.68576 10.4208 7.6293 10.4543 7.61192C10.4833 7.59681 10.5174 7.59681 10.5464 7.61192C10.5798 7.6293 10.6038 7.68576 10.6518 7.79868L11.0341 8.69807C11.0483 8.73145 11.0554 8.74815 11.0664 8.76093C11.0761 8.77224 11.088 8.78128 11.1013 8.78747C11.1162 8.79447 11.1336 8.79639 11.1682 8.80023L12.1021 8.90358C12.2194 8.91656 12.278 8.92305 12.3041 8.951C12.3267 8.97529 12.3373 9.00929 12.3325 9.04291C12.3271 9.08161 12.2833 9.12298 12.1958 9.20575L11.4981 9.86497C11.4723 9.88943 11.4593 9.90167 11.4511 9.91656C11.4439 9.92975 11.4393 9.94439 11.4378 9.95952C11.4361 9.97663 11.4397 9.9945 11.4469 10.0303L11.6418 10.9935C11.6663 11.1145 11.6785 11.1749 11.6612 11.2096C11.6462 11.2397 11.6186 11.2607 11.5866 11.2664C11.5499 11.2729 11.4988 11.242 11.3967 11.1803L10.5832 10.6883C10.553 10.67 10.5379 10.6609 10.5219 10.6573C10.5077 10.6542 10.493 10.6542 10.4788 10.6573C10.4627 10.6609 10.4476 10.67 10.4175 10.6883L9.604 11.1803C9.50187 11.242 9.45081 11.2729 9.41403 11.2664C9.38208 11.2607 9.35449 11.2397 9.33947 11.2096C9.32218 11.1749 9.33441 11.1145 9.35888 10.9935L9.55372 10.0303C9.56095 9.9945 9.56457 9.97663 9.56285 9.95952C9.56133 9.94439 9.5568 9.92975 9.54954 9.91656C9.54134 9.90167 9.52839 9.88943 9.5025 9.86497L8.80492 9.20575C8.71734 9.12298 8.67355 9.08161 8.6681 9.04291C8.66338 9.00929 8.67391 8.97529 8.69658 8.951C8.72268 8.92305 8.7813 8.91656 8.89855 8.90358L9.83242 8.80023C9.86708 8.79639 9.88441 8.79447 9.8994 8.78747C9.91266 8.78128 9.92453 8.77224 9.93424 8.76093C9.94522 8.74815 9.95232 8.73145 9.96651 8.69807L10.3488 7.79868Z" fill="#DDB880" stroke="#D5AB6B" stroke-linecap="round" stroke-linejoin="round"/>
</g>
<defs>
<filter id="filter0_d_1114_3855" x="0.5" y="0.433594" width="20" height="19.2666" filterUnits="userSpaceOnUse" color-interpolation-filters="sRGB">
<feFlood flood-opacity="0" result="BackgroundImageFix"/>
<feColorMatrix in="SourceAlpha" type="matrix" values="0 0 0 0 0 0 0 0 0 0 0 0 0 0 0 0 0 0 127 0" result="hardAlpha"/>
<feOffset dy="1"/>
<feGaussianBlur stdDeviation="2"/>
<feComposite in2="hardAlpha" operator="out"/>
<feColorMatrix type="matrix" values="0 0 0 0 0 0 0 0 0 0 0 0 0 0 0 0 0 0 0.25 0"/>
<feBlend mode="normal" in2="BackgroundImageFix" result="effect1_dropShadow_1114_3855"/>
<feBlend mode="normal" in="SourceGraphic" in2="effect1_dropShadow_1114_3855" result="shape"/>
</filter>
</defs>
</svg>
